<svg width="106" height="102" viewBox="0 0 106 102" fill="none" xmlns="http://www.w3.org/2000/svg">
<path d="M57.249 33.0557V49.7665C57.249 50.6574 58.3262 51.1035 58.9561 50.4736L66.1044 43.3253C66.4949 42.9347 67.1281 42.9347 67.5186 43.3253L74.6669 50.4736C75.2969 51.1035 76.374 50.6574 76.374 49.7665V33.0557" stroke="#C0D5F4" stroke-width="8.4375"/>
<path fill-rule="evenodd" clip-rule="evenodd" d="M33.9785 25.5C31.1826 25.5 28.916 27.7666 28.916 30.5625V96.9375C28.916 99.7334 31.1826 102 33.9785 102H100.354C103.149 102 105.416 99.7334 105.416 96.9375V30.5625C105.416 27.7666 103.149 25.5 100.354 25.5H33.9785ZM96.9161 33.0556H36.4717V94.4444H96.9161V33.0556Z" fill="#C0D5F4"/>
<path d="M53.4721 68.0002C53.4721 70.2928 55.3306 72.1514 57.6232 72.1514C59.9159 72.1514 61.7744 70.2928 61.7744 68.0002" stroke="#2D74DA" stroke-width="1.56977" stroke-linecap="round"/>
<path d="M70.6693 68.0002C70.6693 70.2928 72.5279 72.1514 74.8205 72.1514C77.1131 72.1514 78.9717 70.2928 78.9717 68.0002" stroke="#2D74DA" stroke-width="1.56977" stroke-linecap="round"/>
<path d="M61.7744 79.2678H70.3733" stroke="#2D74DA" stroke-width="1.56977" stroke-linecap="round"/>
<path fill-rule="evenodd" clip-rule="evenodd" d="M12.5302 0H1.2479V2.244H9.22656L0.583008 12.716V14.8353H12.738V12.5913H3.88667L12.5302 1.97389V0ZM25.1971 14.4348H16.9918V16.0668H22.7944L16.5082 23.6828V25.2241H25.3482V23.5921H18.9109L25.1971 15.8703V14.4348Z" fill="#2D74DA"/>
</svg>
